/* XPM */
static char *_891ed4d5cd04f368e862dcaabad854c[] = {
/* columns rows colors chars-per-pixel */
"16 16 49 1 ",
"  c #000035",
". c #000039",
"X c #00003C",
"o c #000042",
"O c #000043",
"+ c #130D52",
"@ c #140E53",
"# c #1A1558",
"$ c #211B5C",
"% c #221D5D",
"& c #50497B",
"* c #554B7F",
"= c #554E7D",
"- c #645F8D",
"; c #64608E",
": c #716D97",
"> c #726F97",
", c #186FF6",
"< c #5657F0",
"1 c #5C71F3",
"2 c #837FA4",
"3 c #00E4BA",
"4 c #00BED8",
"5 c #0082FB",
"6 c #0099FB",
"7 c #00ACE9",
"8 c #00D0C6",
"9 c #8682A7",
"0 c #8B88AB",
"q c #8D8AAB",
"w c #A29FBB",
"e c #AFAFC4",
"r c #B7B7C5",
"t c #B5B5CD",
"y c #BBBACD",
"u c #BFB8CD",
"i c #BEBDD0",
"p c #C1BBFF",
"a c #BBD1FF",
"s c #CAC8D8",
"d c #D0CFDD",
"f c #DBDAE4",
"g c #E0DEE8",
"h c #E7E5EC",
"j c #E6FFFF",
"k c #F1FDFD",
"l c #F4FFFF",
"z c #FEFFFF",
"x c gray100",
/* pixels */
"xxxxxxxxxxxxxxxx",
"xxxxxxxxxxxxxxxx",
"xxxxxxxxxxxxxxxx",
"xxxxxxxxxxxxxxxx",
"xxxxx:+%rp<1xxxx",
"xxxx-#iw.ta,xxxx",
"xxxxodxfq=x5xxxx",
"xxxxXgxs0&l6xxxx",
"xxxx.hix9&k7xxxx",
"xxxxoddx2*k4xxxx",
"xxxx;@ye uj8xxxx",
"xxxxx>+$exk3xxxx",
"xxxxxxxxxxxxxxxx",
"xxxxxxxxxxxxxxxx",
"xxxxxxxxxxxxxxxx",
"xxxxxxxxxxxxxxxx"
};
