/* XPM */
static char *_166ab36c8dc4938b13d3de735a6690a[] = {
/* columns rows colors chars-per-pixel */
"32 32 116 2 ",
"   c #020046",
".  c #0A044C",
"X  c #110B51",
"o  c #130D53",
"O  c #140E53",
"+  c #161155",
"@  c #171156",
"#  c #1A1457",
"$  c #181358",
"%  c #1D165A",
"&  c #1C175A",
"*  c #1E195A",
"=  c #1F195C",
"-  c #211C5D",
";  c #231E5E",
":  c #241E5E",
">  c #252060",
",  c #262160",
"<  c #282462",
"1  c #292463",
"2  c #2A2463",
"3  c #282464",
"4  c #2E2865",
"5  c #2F2967",
"6  c #302B68",
"7  c #332E6A",
"8  c #35306C",
"9  c #37336D",
"0  c #3B3770",
"q  c #484279",
"w  c #49467A",
"e  c #4B467C",
"r  c #4C477C",
"t  c #514C7F",
"y  c #575385",
"u  c #615D8B",
"i  c #6B6893",
"p  c #6C6893",
"a  c #7A779E",
"s  c #4648F0",
"d  c #4B74F4",
"f  c #6471F5",
"g  c #6378F5",
"h  c #8A7EF2",
"j  c #149AFC",
"k  c #248FFA",
"l  c #3485F8",
"z  c #2699FB",
"x  c #3691F9",
"c  c #00BCEB",
"v  c #04A3FE",
"b  c #00ACF9",
"n  c #0AADFE",
"m  c #18A4FC",
"M  c #00B4F1",
"N  c #0AB3F6",
"B  c #09BBF0",
"V  c #4586F7",
"C  c #5086F6",
"Z  c #628BF7",
"A  c #00DBCF",
"S  c #02DFCF",
"D  c #00CBDD",
"F  c #00D2D6",
"G  c #04D8D4",
"H  c #04D1DB",
"J  c #00E6C2",
"K  c #00E2C5",
"L  c #20EBC9",
"P  c #00C4E4",
"I  c #04C9E2",
"U  c #06C2E8",
"Y  c #8985A7",
"T  c #9490B0",
"R  c #9694B3",
"E  c #9A97B5",
"W  c #9E9BB7",
"Q  c #9D9BB8",
"!  c #9E9CB8",
"~  c #A19FBA",
"^  c #A3A2BB",
"/  c #A4A2BB",
"(  c #A6A4BE",
")  c #A8A7C0",
"_  c #A8A8C0",
"`  c #B1B0C6",
"'  c #B9B8CC",
"]  c #8884F4",
"[  c #A898F6",
"{  c #92A9F7",
"}  c #B7BDF9",
"|  c #9FDBFE",
" . c #9CDEFE",
".. c #BBC8FF",
"X. c #A6D7FD",
"o. c #ADD3FD",
"O. c #BBD6FC",
"+. c #99EFED",
"@. c #8EF1E8",
"#. c #93F5E3",
"$. c #9AE6F4",
"%. c #99EAF3",
"&. c #9AEDF0",
"*. c #9AE4F8",
"=. c #C2C0CC",
"-. c #C2C0D2",
";. c #C7C6D6",
":. c #D5D4DF",
">. c #D5D5E1",
",. c #DCDCE6",
"<. c #DEDDE6",
"1. c #E2E2EA",
"2. c #EAE9EF",
"3. c #F4F4F7",
"4. c #F4FEFC",
"5. c gray100",
/* pixels */
"5.5.5.5.5.5.5.5.5.5.5.5.5.5.5.5.5.5.5.5.5.5.5.5.5.5.5.5.5.5.5.5.",
"5.5.5.5.5.5.5.5.5.5.5.5.5.5.5.5.5.5.5.5.5.5.5.5.5.5.5.5.5.5.5.5.",
"5.5.5.5.5.5.5.5.5.5.5.5.5.5.5.5.5.5.5.5.5.5.5.5.5.5.5.5.5.5.5.5.",
"5.5.5.5.5.5.5.5.5.5.5.5.5.5.5.5.5.5.5.5.5.5.5.5.5.5.5.5.5.5.5.5.",
"5.5.5.5.5.5.5.5.5.5.5.5.5.5.5.5.5.5.5.5.5.5.5.5.5.5.5.5.5.5.5.5.",
"5.5.5.5.5.5.5.5.5.5.5.5.5.5.5.5.5.5.5.5.5.5.5.5.5.5.5.5.5.5.5.5.",
"5.5.5.5.5.5.5.5.5.5.5.5.5.5.5.5.5.5.5.5.5.5.5.5.5.5.5.5.5.5.5.5.",
"5.5.5.5.5.5.5.5.5.5.5.5.5.5.5.5.5.5.5.5.5.5.5.5.5.5.5.5.5.5.5.5.",
"5.5.5.5.5.5.5.5.5.5.5.-.p w y Y 5.5.5.[ h ] g } 5.5.5.5.5.5.5.5.",
"5.5.5.5.5.5.5.5.5.5.5 O 1 > 1 >   / 5.s f f Z d 5.5.5.5.5.5.5.5.",
"5.5.5.5.5.5.5.5.5.* 6 $ 9 a u $ 7 . =...{ Z C V 5.5.5.5.5.5.5.5.",
"5.5.5.5.5.5.5.5.W = + ` 5.5.5.,.9 7 X 5.5.O.l x 5.5.5.5.5.5.5.5.",
"5.5.5.5.5.5.5.5.e 1 t 5.5.5.5.W 3.X + :.5.o.k z 5.5.5.5.5.5.5.5.",
"5.5.5.5.5.5.5.5.1 : Q 5.5.5.<.;.5.+ - ( 5.X.j m 5.5.5.5.5.5.5.5.",
"5.5.5.5.5.5.5.5.1 - W 5.5.5.E 5.5.% % ) 5.| v n 5.5.5.5.5.5.5.5.",
"5.5.5.5.5.5.5.5.3 - W 5.5.5.~ 5.5.% - ) 5. .b N 5.5.5.5.5.5.5.5.",
"5.5.5.5.5.5.5.5.2 - W 5.5.( 5.5.5.% * ) 5.*.M B 5.5.5.5.5.5.5.5.",
"5.5.5.5.5.5.5.5.2 - Q 5.5.T 5.5.5.& * ) 5.*.c U 5.5.5.5.5.5.5.5.",
"5.5.5.5.5.5.5.5.> : Q 5.;.<.5.5.5.+ = ) 5.$.P I 5.5.5.5.5.5.5.5.",
"5.5.5.5.5.5.5.5.r 1 q 5.T 5.5.5.2.O O >.5.%.D H 5.5.5.5.5.5.5.5.",
"5.5.5.5.5.5.5.5.! = # R 1.5.5.5.5 7 X 5.5.+.F G 5.5.5.5.5.5.5.5.",
"5.5.5.5.5.5.5.5.5.= 6 * 0 a u X 7 . ' 5.5.+.A S 5.5.5.5.5.5.5.5.",
"5.5.5.5.5.5.5.5.5.5.5 O 2 > > 2   ^ 5.5.5.@.K J 5.5.5.5.5.5.5.5.",
"5.5.5.5.5.5.5.5.5.5.5.-.p w y Y 5.5.5.5.5.4.L #.5.5.5.5.5.5.5.5.",
"5.5.5.5.5.5.5.5.5.5.5.5.5.5.5.5.5.5.5.5.5.5.5.5.5.5.5.5.5.5.5.5.",
"5.5.5.5.5.5.5.5.5.5.5.5.5.5.5.5.5.5.5.5.5.5.5.5.5.5.5.5.5.5.5.5.",
"5.5.5.5.5.5.5.5.5.5.5.5.5.5.5.5.5.5.5.5.5.5.5.5.5.5.5.5.5.5.5.5.",
"5.5.5.5.5.5.5.5.5.5.5.5.5.5.5.5.5.5.5.5.5.5.5.5.5.5.5.5.5.5.5.5.",
"5.5.5.5.5.5.5.5.5.5.5.5.5.5.5.5.5.5.5.5.5.5.5.5.5.5.5.5.5.5.5.5.",
"5.5.5.5.5.5.5.5.5.5.5.5.5.5.5.5.5.5.5.5.5.5.5.5.5.5.5.5.5.5.5.5.",
"5.5.5.5.5.5.5.5.5.5.5.5.5.5.5.5.5.5.5.5.5.5.5.5.5.5.5.5.5.5.5.5.",
"5.5.5.5.5.5.5.5.5.5.5.5.5.5.5.5.5.5.5.5.5.5.5.5.5.5.5.5.5.5.5.5."
};
