/* XPM */
static char *_68b2598c732404ac7cc5798b842e106[] = {
/* columns rows colors chars-per-pixel */
"64 64 173 2 ",
"   c #110B51",
".  c #171156",
"X  c #191357",
"o  c #1C1659",
"O  c #1D185A",
"+  c #221D5E",
"@  c #251F60",
"#  c #262262",
"$  c #2A2563",
"%  c #2E2967",
"&  c #2F2B68",
"*  c #302A67",
"=  c #332E6A",
"-  c #35306C",
";  c #3A356F",
":  c #3C3770",
">  c #423D75",
",  c #474279",
"<  c #4B467C",
"1  c #4B487C",
"2  c #575486",
"3  c #585484",
"4  c #5B5887",
"5  c #625F8C",
"6  c #676490",
"7  c #6A6692",
"8  c #6C6994",
"9  c #716D97",
"0  c #75739A",
"q  c #7A769E",
"w  c #7D7AA0",
"e  c #6B59F1",
"r  c #4D65F4",
"t  c #4E6FF4",
"y  c #5E65F3",
"u  c #4B72F6",
"i  c #527DF6",
"p  c #5979F5",
"a  c #6664F3",
"s  c #6C64F2",
"d  c #6069F3",
"f  c #667EF6",
"g  c #6C7BF5",
"h  c #7475F4",
"j  c #7078F5",
"k  c #837FA3",
"l  c #8E7FF4",
"z  c #00E7BE",
"x  c #3C8EF9",
"c  c #2D97FB",
"v  c #249CFC",
"b  c #3492F9",
"n  c #339EFB",
"m  c #3A99FA",
"M  c #05BEED",
"N  c #0ABDEE",
"B  c #0AABFE",
"V  c #13A5FE",
"C  c #1CA3FD",
"Z  c #10AAFF",
"A  c #1EABFE",
"S  c #07B3F6",
"D  c #0CB5F5",
"F  c #06B8F3",
"G  c #0CB1FA",
"H  c #15B7F7",
"J  c #14BCF2",
"K  c #16B1FC",
"L  c #24A7FC",
"P  c #2CA3FC",
"I  c #34B6FD",
"U  c #3BB2FD",
"Y  c #31BBFC",
"T  c #3FBDFF",
"R  c #4A82F7",
"E  c #4286F8",
"W  c #458AF9",
"Q  c #5C84F7",
"!  c #5688F6",
"~  c #518AF8",
"^  c #4890F9",
"/  c #5C9EF8",
"(  c #6082F6",
")  c #7894F6",
"_  c #729DF9",
"`  c #43AFFC",
"'  c #48ABFB",
"]  c #52A3FB",
"[  c #57AEFB",
"{  c #4DB5FC",
"}  c #46B9FD",
"|  c #52B2FC",
" . c #6AA3F8",
".. c #62AAFB",
"X. c #05CFDE",
"o. c #03D6D7",
"O. c #02DBD3",
"+. c #0DDCD5",
"@. c #04D3DB",
"#. c #0ED4DC",
"$. c #2CDEDD",
"%. c #3ADFDF",
"&. c #00E7C3",
"*. c #00E8C6",
"=. c #02E3CB",
"-. c #0AE3CD",
";. c #09E9CA",
":. c #0BE1D1",
">. c #26E7D2",
",. c #2BE5D5",
"<. c #2BE1D8",
"1. c #38E7D7",
"2. c #33EED0",
"3. c #38EBD3",
"4. c #3AE3DC",
"5. c #02C7E5",
"6. c #05CAE3",
"7. c #0FCFE1",
"8. c #04C3E8",
"9. c #09C3EA",
"0. c #10CAE6",
"q. c #12C3EC",
"w. c #2DCCEC",
"e. c #3CCEEF",
"r. c #2CD4E5",
"t. c #2CD8E0",
"y. c #3ADAE4",
"u. c #3CD2EA",
"i. c #2FC3F4",
"p. c #3ECAF3",
"a. c #3FC3F8",
"s. c #7AF3E0",
"d. c #8482A5",
"f. c #8E8BAD",
"g. c #9996B4",
"h. c #9C9AB6",
"j. c #A09FBA",
"k. c #A3A1BC",
"l. c #A9A7BF",
"z. c #AFADC4",
"x. c #B5B4C9",
"c. c #B8B5CA",
"v. c #BBB9CD",
"b. c #A0ABF7",
"n. c #BEB6F7",
"m. c #B7B8F9",
"M. c #BCBAF9",
"N. c #C8BEF9",
"B. c #BFCFFC",
"V. c #82F4E2",
"C. c #9AF6E8",
"Z. c #B0F8EE",
"A. c #BAF9EF",
"S. c #C3C2D4",
"D. c #C8C7D6",
"F. c #CDCBDA",
"G. c #D1CFDD",
"H. c #D4D3DF",
"J. c #D7D6E1",
"K. c #D9D7E2",
"L. c #D9D8E3",
"P. c #D7D9FB",
"I. c #E2E1E9",
"U. c #EAEAEF",
"Y. c #EEEDF2",
"T. c #E0E5FC",
"R. c #E6EDFC",
"E. c #EEEDFD",
"W. c #EFF0F4",
"Q. c #EBF0FD",
"!. c #F3F2F6",
"~. c #F5F4FA",
"^. c #FFFFFF",
/* pixels */
"^.^.^.^.^.^.^.^.^.^.^.^.^.^.^.^.^.^.^.^.^.^.^.^.^.^.^.^.^.^.^.^.^.^.^.^.^.^.^.^.^.^.^.^.^.^.^.^.^.^.^.^.^.^.^.^.^.^.^.^.^.^.^.^.",
"^.^.^.^.^.^.^.^.^.^.^.^.^.^.^.^.^.^.^.^.^.^.^.^.^.^.^.^.^.^.^.^.^.^.^.^.^.^.^.^.^.^.^.^.^.^.^.^.^.^.^.^.^.^.^.^.^.^.^.^.^.^.^.^.",
"^.^.^.^.^.^.^.^.^.^.^.^.^.^.^.^.^.^.^.^.^.^.^.^.^.^.^.^.^.^.^.^.^.^.^.^.^.^.^.^.^.^.^.^.^.^.^.^.^.^.^.^.^.^.^.^.^.^.^.^.^.^.^.^.",
"^.^.^.^.^.^.^.^.^.^.^.^.^.^.^.^.^.^.^.^.^.^.^.^.^.^.^.^.^.^.^.^.^.^.^.^.^.^.^.^.^.^.^.^.^.^.^.^.^.^.^.^.^.^.^.^.^.^.^.^.^.^.^.^.",
"^.^.^.^.^.^.^.^.^.^.^.^.^.^.^.^.^.^.^.^.^.^.^.^.^.^.^.^.^.^.^.^.^.^.^.^.^.^.^.^.^.^.^.^.^.^.^.^.^.^.^.^.^.^.^.^.^.^.^.^.^.^.^.^.",
"^.^.^.^.^.^.^.^.^.^.^.^.^.^.^.^.^.^.^.^.^.^.^.^.^.^.^.^.^.^.^.^.^.^.^.^.^.^.^.^.^.^.^.^.^.^.^.^.^.^.^.^.^.^.^.^.^.^.^.^.^.^.^.^.",
"^.^.^.^.^.^.^.^.^.^.^.^.^.^.^.^.^.^.^.^.^.^.^.^.^.^.^.^.^.^.^.^.^.^.^.^.^.^.^.^.^.^.^.^.^.^.^.^.^.^.^.^.^.^.^.^.^.^.^.^.^.^.^.^.",
"^.^.^.^.^.^.^.^.^.^.^.^.^.^.^.^.^.^.^.^.^.^.^.^.^.^.^.^.^.^.^.^.^.^.^.^.^.^.^.^.^.^.^.^.^.^.^.^.^.^.^.^.^.^.^.^.^.^.^.^.^.^.^.^.",
"^.^.^.^.^.^.^.^.^.^.^.^.^.^.^.^.^.^.^.^.^.^.^.^.^.^.^.^.^.^.^.^.^.^.^.^.^.^.^.^.^.^.^.^.^.^.^.^.^.^.^.^.^.^.^.^.^.^.^.^.^.^.^.^.",
"^.^.^.^.^.^.^.^.^.^.^.^.^.^.^.^.^.^.^.^.^.^.^.^.^.^.^.^.^.^.^.^.^.^.^.^.^.^.^.^.^.^.^.^.^.^.^.^.^.^.^.^.^.^.^.^.^.^.^.^.^.^.^.^.",
"^.^.^.^.^.^.^.^.^.^.^.^.^.^.^.^.^.^.^.^.^.^.^.^.^.^.^.^.^.^.^.^.^.^.^.^.^.^.^.^.^.^.^.^.^.^.^.^.^.^.^.^.^.^.^.^.^.^.^.^.^.^.^.^.",
"^.^.^.^.^.^.^.^.^.^.^.^.^.^.^.^.^.^.^.^.^.^.^.^.^.^.^.^.^.^.^.^.^.^.^.^.^.^.^.^.^.^.^.^.^.^.^.^.^.^.^.^.^.^.^.^.^.^.^.^.^.^.^.^.",
"^.^.^.^.^.^.^.^.^.^.^.^.^.^.^.^.^.^.^.^.^.^.^.^.^.^.^.^.^.^.^.^.^.^.^.^.^.^.^.^.^.^.^.^.^.^.^.^.^.^.^.^.^.^.^.^.^.^.^.^.^.^.^.^.",
"^.^.^.^.^.^.^.^.^.^.^.^.^.^.^.^.^.^.^.^.^.^.^.^.^.^.^.^.^.^.^.^.^.^.^.^.^.^.^.^.^.^.^.^.^.^.^.^.^.^.^.^.^.^.^.^.^.^.^.^.^.^.^.^.",
"^.^.^.^.^.^.^.^.^.^.^.^.^.^.^.^.^.^.^.^.^.^.^.^.^.^.^.^.^.^.^.^.^.^.^.^.^.^.^.^.^.^.^.^.^.^.^.^.^.^.^.^.^.^.^.^.^.^.^.^.^.^.^.^.",
"^.^.^.^.^.^.^.^.^.^.^.^.^.^.^.^.^.^.^.^.^.^.^.~.^.^.^.^.^.^.^.^.^.^.^.^.^.^.^.^.^.^.^.^.^.^.^.^.^.^.^.^.^.^.^.^.^.^.^.^.^.^.^.^.",
"^.^.^.^.^.^.^.^.^.^.^.^.^.^.^.^.^.^.^.^.^.^.^.^.I.S.k.g.k.S.I.^.^.^.^.^.^.^.^.N.n.N.M.M.M.m.P.^.^.^.^.^.^.^.^.^.^.^.^.^.^.^.^.^.",
"^.^.^.^.^.^.^.^.^.^.^.^.^.^.^.^.^.^.^.^.^.^.k.> + X o O o o + > k.^.^.^.^.^.l e s a a a d y r B.^.^.^.^.^.^.^.^.^.^.^.^.^.^.^.^.",
"^.^.^.^.^.^.^.^.^.^.^.^.^.^.^.^.^.^.^.^.F.= . % = - - = - - = % . * D.^.^.E.a h h j j g f f p ) ^.^.^.^.^.^.^.^.^.^.^.^.^.^.^.^.",
"^.^.^.^.^.^.^.^.^.^.^.^.^.^.^.^.^.^.^.j.  % - = = - - - - - = = = %   j.^.E.y g g f f f ( Q i _ ^.^.^.^.^.^.^.^.^.^.^.^.^.^.^.^.",
"^.^.^.^.^.^.^.^.^.^.^.^.^.^.^.^.^.^.x.  - = = - % X X o X o % = = = ;   z.^.b.r t t u Q Q ! R _ ^.^.^.^.^.^.^.^.^.^.^.^.^.^.^.^.",
"^.^.^.^.^.^.^.^.^.^.^.^.^.^.^.^.^.!.o = - = = o , h.H.I.H.h., + = = = = X Y.^.Q.T.R.B.i ~ ~ E  .^.^.^.^.^.^.^.^.^.^.^.^.^.^.^.^.",
"^.^.^.^.^.^.^.^.^.^.^.^.^.^.^.^.^.7 + - = = o v.^.^.^.^.^.^.^.f.. = = = @ 5 ^.^.^.^.^./ W ^ x ..^.^.^.^.^.^.^.^.^.^.^.^.^.^.^.^.",
"^.^.^.^.^.^.^.^.^.^.^.^.^.^.^.^.Y.+ = = = X F.^.^.^.^.^.^.^.^.q H.o = = = o U.^.^.^.^./ x x b ..^.^.^.^.^.^.^.^.^.^.^.^.^.^.^.^.",
"^.^.^.^.^.^.^.^.^.^.^.^.^.^.^.^.v.o - - + 8 ^.^.^.^.^.^.^.^.F.g.^.8 @ - - o z.^.~.^.^.] b m c [ ^.^.^.^.^.^.^.^.^.^.^.^.^.^.^.^.",
"^.^.^.^.^.^.^.^.^.^.^.^.^.^.~.^.k + - = . J.^.^.^.^.^.^.^.^.q I.^.K.. - - + 0 ^.^.^.^.] c n v | ^.^.^.^.^.^.^.^.^.^.^.^.^.^.^.^.",
"^.^.^.^.^.^.^.^.^.^.^.^.^.^.^.^.5 @ = = $ ^.^.^.^.^.^.^.^.Y.9 ^.^.^.$ & = # 3 ^.^.^.^.' v P C { ^.^.^.^.^.^.^.^.^.^.^.^.^.^.^.^.",
"^.^.^.^.^.^.^.^.^.^.^.^.^.^.^.^.2 # = % ; ^.^.^.^.^.^.^.^.f.H.^.^.^.; % = $ < ^.^.^.^.` L L V } ^.^.^.^.^.^.^.^.^.^.^.^.^.^.^.^.",
"^.^.^.^.^.^.^.^.^.^.^.^.^.^.^.^.2 # = % ; ^.^.^.^.^.^.^.~.9 ^.^.^.^.: % = $ 1 ^.^.~.^.U V A B T ^.^.^.^.^.^.^.^.^.^.^.^.^.^.^.^.",
"^.^.^.^.^.^.^.^.^.^.^.^.^.^.^.^.2 # = % ; ^.^.^.^.^.^.^.S.k.^.^.^.^.: % = $ 1 ^.^.^.^.I Z K B T ^.^.^.^.^.^.^.^.^.^.^.^.^.^.^.^.",
"^.^.^.^.^.^.^.^.^.^.^.^.^.^.^.^.2 # = % ; ^.^.^.^.^.^.^.7 ~.^.^.^.^.: % = $ 1 ^.^.^.^.Y G K S T ^.^.^.^.^.^.^.^.^.^.^.^.^.^.^.^.",
"^.^.^.^.^.^.^.^.^.^.^.^.^.^.^.^.2 # = % ; ^.^.^.^.^.^.H.d.^.^.^.^.^.: % = $ 1 ^.^.^.^.Y D H S a.^.^.^.^.^.^.^.^.^.^.^.^.^.^.^.^.",
"^.^.^.^.^.^.^.^.^.^.^.^.^.^.^.^.2 # = * ; ^.^.^.^.^.^.d.I.^.^.^.^.^.: % = $ 1 ^.^.^.^.i.S H F p.^.^.^.^.^.^.^.^.^.^.^.^.^.^.^.^.",
"^.^.^.^.^.^.^.^.^.^.^.^.^.^.^.^.2 # = * ; ^.^.^.^.^.~.0 ^.^.^.^.^.^.: % = $ 1 ^.^.^.^.i.N J M p.^.^.^.^.^.^.^.^.^.^.^.^.^.^.^.^.",
"^.^.^.^.^.^.^.^.^.^.^.^.^.^.~.^.2 # = $ ; ^.^.^.^.^.l.z.^.^.^.^.^.^.: % = $ 1 ^.^.^.^.i.N q.M e.^.^.^.^.^.^.^.^.^.^.^.^.^.^.^.^.",
"^.^.^.^.^.^.^.^.^.^.^.^.^.^.^.^.2 # = * ; ^.^.^.^.^.5 ^.^.^.^.^.^.^.: % = $ 1 ^.~.^.^.w.9.q.8.u.^.^.^.^.^.^.^.^.^.^.^.^.^.^.^.^.",
"^.^.^.^.^.^.^.^.^.^.^.^.^.^.^.^.2 # = % ; ^.^.^.^.S.h.^.^.^.^.^.^.^.; $ = $ < ^.^.^.^.w.9.0.5.u.^.^.^.^.^.^.^.^.^.^.^.^.^.^.^.^.",
"^.^.^.^.^.^.^.^.^.^.^.^.^.^.^.^.5 # = = $ ~.^.^.^.w I.^.^.^.^.^.^.^.$ = = $ 3 ^.^.^.^.w.6.7.5.y.^.~.^.^.^.^.^.^.^.^.^.^.^.^.^.^.",
"^.^.^.^.^.^.^.^.^.^.^.^.^.^.^.^.d.+ - = . F.^.^.!.0 ^.^.^.^.^.^.^.J.. - - + q ^.^.^.^.r.6.7.X.y.^.^.^.^.^.^.^.^.^.^.^.^.^.^.^.^.",
"^.^.^.^.^.^.^.^.^.^.^.^.^.^.^.^.v.o - = $ 4 ^.^.f.F.^.^.^.^.^.^.^.8 # - = o z.^.^.^.^.r.X.#.@.%.^.^.^.^.^.^.^.^.^.^.^.^.^.^.^.^.",
"^.^.^.^.^.^.^.^.^.^.^.^.^.^.^.^.Y.@ - = - X x.^.6 ^.^.^.^.^.^.^.D.X - = - + U.^.^.^.^.t.@.#.o.y.^.^.^.^.^.^.^.^.^.^.^.^.^.^.^.^.",
"^.^.^.^.^.^.^.^.^.^.^.^.^.^.^.^.^.8 + - = = o q G.^.^.^.^.^.^.x.o = = = @ 5 ^.^.^.^.^.$.o.+.O.4.^.^.^.^.^.^.^.^.^.^.^.^.^.^.^.^.",
"^.^.^.^.^.^.^.^.^.^.^.^.^.^.^.^.^.~.o & - = = O , h.H.I.G.h., o = = = = X W.^.^.^.~.^.$.O.+.O.1.^.^.^.^.^.^.^.^.^.^.^.^.^.^.^.^.",
"^.^.^.^.^.^.^.^.^.^.^.^.^.^.^.^.^.^.c.  - = - = % o . o . X % - = = -   z.^.^.^.^.^.^.<.O.:.=.1.^.^.^.^.^.^.^.^.^.^.^.^.^.^.^.^.",
"^.^.^.^.^.^.^.^.^.^.^.^.^.^.^.^.^.^.^.k.  % - = = - = = - = = - = %   h.^.^.^.^.^.^.^.,.=.-.=.3.^.^.^.^.^.^.^.^.^.^.^.^.^.^.^.^.",
"^.^.^.^.^.^.^.^.^.^.^.^.^.^.^.^.^.^.^.^.G.= . % = - = - = - = % X & F.^.^.^.^.^.^.^.^.>.=.;.*.2.^.^.^.^.^.^.^.^.^.^.^.^.^.^.^.^.",
"^.^.^.^.^.^.^.^.^.^.^.^.^.^.^.^.^.^.^.^.^.^.k.> + o o O O o + > k.^.^.^.^.^.^.^.^.^.^.V.z &.z C.^.^.^.^.^.^.^.^.^.^.^.^.^.^.^.^.",
"^.^.^.^.^.^.^.^.^.^.^.^.^.^.^.^.^.^.^.^.^.^.^.^.I.S.k.g.k.S.L.^.^.^.^.^.^.^.^.^.^.^.^.^.Z.s.A.^.^.^.^.^.^.^.^.^.^.^.^.^.^.^.^.^.",
"^.^.^.^.^.^.^.^.^.^.^.^.^.^.^.^.^.^.^.^.^.^.^.^.^.^.^.^.^.^.^.^.^.^.^.^.^.^.^.^.^.^.^.^.^.^.^.^.^.^.^.^.^.^.^.^.^.^.^.^.^.^.^.^.",
"^.^.^.^.^.^.^.^.^.^.^.^.^.^.^.^.^.^.^.^.^.^.^.^.^.^.^.^.^.^.^.^.^.^.^.^.^.^.^.^.^.^.^.^.^.^.^.^.^.^.^.^.^.^.^.^.^.^.^.^.^.^.^.^.",
"^.^.^.^.^.^.^.^.^.^.^.^.^.^.^.^.^.^.^.^.^.^.^.^.^.^.^.^.^.^.^.^.^.^.^.^.^.^.^.^.^.^.^.^.^.^.^.^.^.^.^.^.^.^.^.^.^.^.^.^.^.^.^.^.",
"^.^.^.^.^.^.^.^.^.^.^.^.^.^.^.^.^.^.^.^.^.^.^.^.^.^.^.^.^.^.^.^.^.^.^.^.^.^.^.^.^.^.^.^.^.^.^.^.^.^.^.^.^.^.^.^.^.^.^.^.^.^.^.^.",
"^.^.^.^.^.^.^.^.^.^.^.^.^.^.^.^.^.^.^.^.^.^.^.^.^.^.^.^.^.^.^.^.^.^.^.^.^.^.^.^.^.^.^.^.^.^.^.^.^.^.^.^.^.^.^.^.^.^.^.^.^.^.^.^.",
"^.^.^.^.^.^.^.^.^.^.^.^.^.^.^.^.^.^.^.^.^.^.^.^.^.^.^.^.^.^.^.^.^.^.^.^.^.^.^.^.^.^.^.^.^.^.^.^.^.^.^.^.^.^.^.^.^.^.^.^.^.^.^.^.",
"^.^.^.^.^.^.^.^.^.^.^.^.^.^.^.^.^.^.^.^.^.^.^.^.^.^.^.^.^.^.^.^.^.^.^.^.^.^.^.^.^.^.^.^.^.^.^.^.^.^.^.^.^.^.^.^.^.^.^.^.^.^.^.^.",
"^.^.^.^.^.^.^.^.^.^.^.^.^.^.^.^.^.^.^.^.^.^.^.^.^.^.^.^.^.^.^.^.^.^.^.^.^.^.^.^.^.^.^.^.^.^.^.^.^.^.^.^.^.^.^.^.^.^.^.^.^.^.^.^.",
"^.^.^.^.^.^.^.^.^.^.^.^.^.^.^.^.^.^.^.^.^.^.^.^.^.^.^.^.^.^.^.^.^.^.^.^.^.^.^.^.^.^.^.^.^.^.^.^.^.^.^.^.^.^.^.^.^.^.^.^.^.^.^.^.",
"^.^.^.^.^.^.^.^.^.^.^.^.^.^.^.^.^.^.^.^.^.^.^.^.^.^.^.^.^.^.^.^.^.^.^.^.^.^.^.^.^.^.^.^.^.^.^.^.^.^.^.^.^.^.^.^.^.^.^.^.^.^.^.^.",
"^.^.^.^.^.^.^.^.^.^.^.^.^.^.^.^.^.^.^.^.^.^.^.^.^.^.^.^.^.^.^.^.^.^.^.^.^.^.^.^.^.^.^.^.^.^.^.^.^.^.^.^.^.^.^.^.^.^.^.^.^.^.^.^.",
"^.^.^.^.^.^.^.^.^.^.^.^.^.^.^.^.^.^.^.^.^.^.^.^.^.^.^.^.^.^.^.^.^.^.^.^.^.^.^.^.^.^.^.^.^.^.^.^.^.^.^.^.^.^.^.^.^.^.^.^.^.^.^.^.",
"^.^.^.^.^.^.^.^.^.^.^.^.^.^.^.^.^.^.^.^.^.^.^.^.^.^.^.^.^.^.^.^.^.^.^.^.^.^.^.^.^.^.^.^.^.^.^.^.^.^.^.^.^.^.^.^.^.^.^.^.^.^.^.^.",
"^.^.^.^.^.^.^.^.^.^.^.^.^.^.^.^.^.^.^.^.^.^.^.^.^.^.^.^.^.^.^.^.^.^.^.^.^.^.^.^.^.^.^.^.^.^.^.^.^.^.^.^.^.^.^.^.^.^.^.^.^.^.^.^.",
"^.^.^.^.^.^.^.^.^.^.^.^.^.^.^.^.^.^.^.^.^.^.^.^.^.^.^.^.^.^.^.^.^.^.^.^.^.^.^.^.^.^.^.^.^.^.^.^.^.^.^.^.^.^.^.^.^.^.^.^.^.^.^.^.",
"^.^.^.^.^.^.^.^.^.^.^.^.^.^.^.^.^.^.^.^.^.^.^.^.^.^.^.^.^.^.^.^.^.^.^.^.^.^.^.^.^.^.^.^.^.^.^.^.^.^.^.^.^.^.^.^.^.^.^.^.^.^.^.^."
};
